# xmcd
#
# Track frame offsets:
#	150
#	18985
#	35378
#	59077
#	76873
#	97497
#	116288
#
# Disc length: 2185 seconds
#
# Revision: 0
# Processed by: cddbd v1.5.2PL0 Copyright (c) Steve Scherf et al.
# Submitted via: dBpowerAMP V4.0
#
DISCID=55088707
DTITLE=Anna Piechotta and Band - Sinnflut
DYEAR=1900
DGENRE=Chanson
TTITLE0=Sinnflut
TTITLE1=Ich will nicht
TTITLE2=Nachtlicht
TTITLE3=König der Nation
TTITLE4=Immer noch
TTITLE5=Die Welt steht still
TTITLE6=Du
EXTD=
EXTT0=
EXTT1=
EXTT2=
EXTT3=
EXTT4=
EXTT5=
EXTT6=
PLAYORDER=
